<svg width="60" height="61" viewBox="0 0 60 61" fill="none" xmlns="http://www.w3.org/2000/svg">
<path d="M54.3292 22.6965L12.9656 1.91528C11.3332 1.09891 9.48991 0.80827 7.6871 1.083C5.88429 1.35773 4.20968 2.18446 2.89157 3.45047C1.57347 4.71648 0.676021 6.36015 0.321594 8.1574C-0.0328336 9.95465 0.173006 11.818 0.911047 13.4934L8.00196 29.4356C8.16285 29.821 8.24572 30.2348 8.24572 30.6527C8.24572 31.0707 8.16285 31.4845 8.00196 31.8699L0.911047 47.8121C0.310388 49.168 0.0564616 50.6532 0.172343 52.1327C0.288224 53.6123 0.77024 55.0393 1.57458 56.284C2.37893 57.5288 3.4801 58.5518 4.77802 59.2602C6.07595 59.9686 7.52947 60.3398 9.0065 60.3402C10.3899 60.3263 11.7527 60.0017 12.9951 59.3902L54.3588 38.609C55.826 37.8673 57.0593 36.7307 57.921 35.3258C58.7828 33.9209 59.2391 32.303 59.2391 30.6527C59.2391 29.0024 58.7828 27.3846 57.921 25.9797C57.0593 24.5748 55.826 23.4381 54.3588 22.6965H54.3292ZM51.6997 33.2949L10.336 54.0761C9.79289 54.3382 9.18298 54.4271 8.5881 54.331C7.99322 54.2349 7.4418 53.9583 7.00779 53.5384C6.57378 53.1184 6.27792 52.5752 6.15989 51.9815C6.04185 51.3878 6.10729 50.772 6.34741 50.2168L13.4088 34.2746C13.5002 34.0617 13.5791 33.8437 13.6451 33.6215H34.002C34.7855 33.6215 35.537 33.3087 36.0911 32.752C36.6452 32.1952 36.9565 31.4401 36.9565 30.6527C36.9565 29.8654 36.6452 29.1103 36.0911 28.5535C35.537 27.9968 34.7855 27.684 34.002 27.684H13.6451C13.5791 27.4618 13.5002 27.2438 13.4088 27.0309L6.34741 11.0887C6.10729 10.5334 6.04185 9.91768 6.15989 9.32399C6.27792 8.7303 6.57378 8.18707 7.00779 7.76712C7.4418 7.34718 7.99322 7.0706 8.5881 6.97448C9.18298 6.87836 9.79289 6.96729 10.336 7.22934L51.6997 28.0106C52.1836 28.2597 52.5898 28.6382 52.8734 29.1044C53.157 29.5706 53.3071 30.1064 53.3071 30.6527C53.3071 31.1991 53.157 31.7349 52.8734 32.2011C52.5898 32.6673 52.1836 33.0458 51.6997 33.2949V33.2949Z" fill="url(#paint0_radial_115_1209)"/>
<defs>
<radialGradient id="paint0_radial_115_1209" cx="0" cy="0" r="1" gradientUnits="userSpaceOnUse" gradientTransform="translate(-66.3359 -25.6415) rotate(32.2187) scale(161.27 161.582)">
<stop offset="0.664004" stop-color="#E7181C"/>
<stop offset="0.967825" stop-color="#F07577"/>
</radialGradient>
</defs>
</svg>
