<svg width="40" height="37" viewBox="0 0 40 37" fill="none" xmlns="http://www.w3.org/2000/svg">
<path d="M36.0167 4.06485C40.4036 8.48454 40.5549 15.5233 36.4744 20.1145L20.3831 36.3061C20.1875 36.5029 19.8692 36.5028 19.6737 36.3061L3.58618 20.1145C-0.494303 15.5233 -0.34109 8.47285 4.04388 4.06485C8.32874 -0.238705 15.1195 -0.485306 19.6913 3.32505C19.888 3.48903 20.1764 3.48893 20.373 3.32483C24.9328 -0.479998 31.7359 -0.244174 36.0167 4.06485ZM6.78812 6.82229C3.89843 9.72588 3.75297 14.3736 6.41576 17.4448L19.6757 30.7893C19.8712 30.986 20.1895 30.986 20.385 30.7893L33.6449 17.4467C36.3096 14.3736 36.1641 9.73172 33.2705 6.81839C30.3867 3.9148 25.7438 3.77449 22.695 6.45593L14.9 14.2903C14.7046 14.4867 14.3867 14.4868 14.1913 14.2905L12.1526 12.2435C11.9584 12.0485 11.9583 11.7332 12.1523 11.5381L17.1334 6.52954C17.2125 6.44999 17.2069 6.31985 17.1212 6.24742V6.24742C14.0667 3.78229 9.60218 3.99275 6.78812 6.82229Z" fill="url(#paint0_radial_1620_3092)"/>
<defs>
<radialGradient id="paint0_radial_1620_3092" cx="0" cy="0" r="1" gradientUnits="userSpaceOnUse" gradientTransform="translate(-43.0008 -15.5159) rotate(30.2268) scale(103.648 100.146)">
<stop offset="0.664004" stop-color="#E7181C"/>
<stop offset="0.967825" stop-color="#F07577"/>
</radialGradient>
</defs>
</svg>
