<svg width="48" height="50" viewBox="0 0 48 50" fill="none" xmlns="http://www.w3.org/2000/svg">
<path d="M33.4561 16.2715C34.2238 15.4759 35.4691 15.4759 36.2369 16.2715C37.0047 17.0673 37.0047 18.3577 36.2369 19.1533L21.468 34.4575C20.7 35.253 19.4547 35.253 18.6869 34.4575L11.3022 26.8054C10.5344 26.0098 10.5344 24.7194 11.3022 23.9239C12.0702 23.128 13.3155 23.128 14.0833 23.9239L20.0774 30.1351L33.4561 16.2715V16.2715ZM23.7694 0.942322C30.2769 0.942322 36.1698 3.67637 40.435 8.09599C44.7002 12.5153 47.3388 18.6219 47.3388 25.3648C47.3388 32.1087 44.7005 38.2142 40.435 42.6338C36.1698 47.0534 30.2769 49.7875 23.7694 49.7875C17.2614 49.7875 11.369 47.0537 7.10403 42.6338C2.8383 38.2142 0.200317 32.1087 0.200317 25.3648C0.200317 18.6219 2.83883 12.5153 7.10403 8.09599C11.369 3.67582 17.2614 0.942322 23.7694 0.942322V0.942322ZM37.6542 10.9775C34.1011 7.29604 29.1919 5.01868 23.7694 5.01868C18.3466 5.01868 13.4374 7.29604 9.88486 10.9775C6.33203 14.659 4.13424 19.7462 4.13424 25.3648C4.13424 30.9842 6.33203 36.0711 9.88486 39.7523C13.4374 43.4338 18.3466 45.7108 23.7694 45.7108C29.1919 45.7108 34.1011 43.4338 37.6542 39.7523C41.207 36.0711 43.4046 30.9842 43.4046 25.3648C43.4046 19.7462 41.207 14.659 37.6542 10.9775V10.9775Z" fill="url(#paint0_radial_115_3549)"/>
<defs>
<radialGradient id="paint0_radial_115_3549" cx="0" cy="0" r="1" gradientUnits="userSpaceOnUse" gradientTransform="translate(-52.8304 -20.9662) rotate(33.0281) scale(129.811 131.768)">
<stop offset="0.664004" stop-color="#E7181C"/>
<stop offset="0.967825" stop-color="#F07577"/>
</radialGradient>
</defs>
</svg>
