<svg width="39" height="54" viewBox="0 0 39 54" fill="none" xmlns="http://www.w3.org/2000/svg">
<path d="M32.6903 0.878723H6.78491C5.31265 0.878723 3.9007 1.46639 2.85965 2.51243C1.81861 3.55848 1.23376 4.97722 1.23376 6.45656V49.22C1.22811 49.938 1.43211 50.642 1.82052 51.2448C2.20893 51.8475 2.7647 52.3226 3.41906 52.6113C3.89923 52.8302 4.42018 52.9443 4.94748 52.946C5.8508 52.9438 6.72143 52.6061 7.39184 51.9977L18.5071 42.071C18.846 41.7679 19.2839 41.6004 19.7376 41.6004C20.1913 41.6004 20.6293 41.7679 20.9681 42.071L32.0815 51.9977C32.6146 52.4741 33.2734 52.7854 33.9785 52.8943C34.6837 53.0032 35.4051 52.905 36.0559 52.6115C36.7068 52.318 37.2594 51.8417 37.6471 51.24C38.0349 50.6383 38.2413 49.9368 38.2415 49.22V6.45656C38.2415 4.97722 37.6566 3.55848 36.6156 2.51243C35.5745 1.46639 34.1626 0.878723 32.6903 0.878723ZM34.5407 49.22L23.4254 39.2933C22.4093 38.3858 21.0971 37.8845 19.7376 37.8845C18.3781 37.8845 17.0659 38.3858 16.0498 39.2933L4.93453 49.22V6.45656C4.93453 5.96345 5.12948 5.49053 5.47649 5.14185C5.82351 4.79317 6.29416 4.59728 6.78491 4.59728H32.6903C33.1811 4.59728 33.6517 4.79317 33.9987 5.14185C34.3457 5.49053 34.5407 5.96345 34.5407 6.45656L34.5536 49.22H34.5407Z" fill="#E7181C" stroke="#E7181C" stroke-width="0.8"/>
</svg>
