<svg width="44" height="42" viewBox="0 0 44 42" fill="none" xmlns="http://www.w3.org/2000/svg">
<path d="M39.3262 4.52573C44.1867 9.57557 44.3543 17.6179 39.8333 22.8637L21.9719 41.398C21.7752 41.6021 21.4484 41.602 21.2518 41.3979L3.39462 22.8637C-1.12637 17.6179 -0.956619 9.56221 3.90173 4.52573C8.65889 -0.401499 16.2039 -0.674308 21.2695 3.7073C21.4676 3.87871 21.7645 3.87861 21.9625 3.70708C27.0147 -0.668196 34.5735 -0.407786 39.3262 4.52573ZM6.94223 7.67631C3.74057 10.9939 3.57941 16.3042 6.52966 19.8133L21.2539 35.0946C21.4506 35.2987 21.7774 35.2987 21.974 35.0946L36.6983 19.8155C39.6507 16.3042 39.4895 11.0006 36.2836 7.67186C33.0883 4.35428 27.9442 4.19397 24.5664 7.25772L15.8969 16.2432C15.7004 16.4469 15.3741 16.447 15.1774 16.2434L12.832 13.8147C12.645 13.621 12.6448 13.3141 12.8317 13.1203L18.4047 7.34138C18.493 7.24984 18.4867 7.10305 18.3908 7.01947V7.01947C15.0065 4.20288 10.0601 4.44335 6.94223 7.67631Z" fill="url(#paint0_radial_115_3563)"/>
<defs>
<radialGradient id="paint0_radial_115_3563" cx="0" cy="0" r="1" gradientUnits="userSpaceOnUse" gradientTransform="translate(-48.2217 -17.8468) rotate(30.9994) scale(115.757 113.516)">
<stop offset="0.664004" stop-color="#E7181C"/>
<stop offset="0.967825" stop-color="#F07577"/>
</radialGradient>
</defs>
</svg>
