<svg width="44" height="45" viewBox="0 0 44 45" fill="none" xmlns="http://www.w3.org/2000/svg">
<path d="M13.0612 20.2383C12.6369 20.2383 12.222 20.368 11.8691 20.6112C11.5163 20.8543 11.2412 21.1999 11.0788 21.6043C10.9164 22.0086 10.8739 22.4535 10.9567 22.8827C11.0395 23.312 11.2439 23.7063 11.544 24.0157C11.8441 24.3252 12.2264 24.5359 12.6426 24.6213C13.0589 24.7067 13.4903 24.6629 13.8824 24.4954C14.2745 24.3279 14.6096 24.0443 14.8454 23.6804C15.0811 23.3165 15.207 22.8887 15.207 22.4511C15.207 21.8642 14.9809 21.3014 14.5785 20.8864C14.1761 20.4714 13.6303 20.2383 13.0612 20.2383V20.2383ZM21.6442 20.2383C21.2198 20.2383 20.8049 20.368 20.4521 20.6112C20.0992 20.8543 19.8242 21.1999 19.6618 21.6043C19.4994 22.0086 19.4569 22.4535 19.5397 22.8827C19.6225 23.312 19.8268 23.7063 20.1269 24.0157C20.427 24.3252 20.8093 24.5359 21.2256 24.6213C21.6418 24.7067 22.0732 24.6629 22.4653 24.4954C22.8574 24.3279 23.1925 24.0443 23.4283 23.6804C23.6641 23.3165 23.7899 22.8887 23.7899 22.4511C23.7899 21.8642 23.5639 21.3014 23.1615 20.8864C22.7591 20.4714 22.2133 20.2383 21.6442 20.2383ZM30.2271 20.2383C29.8028 20.2383 29.3879 20.368 29.035 20.6112C28.6822 20.8543 28.4071 21.1999 28.2447 21.6043C28.0823 22.0086 28.0398 22.4535 28.1226 22.8827C28.2054 23.312 28.4098 23.7063 28.7099 24.0157C29.01 24.3252 29.3923 24.5359 29.8085 24.6213C30.2248 24.7067 30.6562 24.6629 31.0483 24.4954C31.4404 24.3279 31.7755 24.0443 32.0113 23.6804C32.247 23.3165 32.3729 22.8887 32.3729 22.4511C32.3729 21.8642 32.1468 21.3014 31.7444 20.8864C31.342 20.4714 30.7962 20.2383 30.2271 20.2383ZM21.6442 0.323181C18.8264 0.323181 16.0361 0.895536 13.4328 2.00757C10.8295 3.1196 8.46404 4.74952 6.47154 6.80429C2.4475 10.9541 0.186823 16.5824 0.186823 22.4511C0.168065 27.5607 1.88366 32.516 5.03619 36.458L0.744715 40.8836C0.446977 41.1947 0.245286 41.5899 0.165091 42.0191C0.0848962 42.4484 0.129791 42.8925 0.29411 43.2955C0.47233 43.6937 0.761246 44.0282 1.12418 44.2567C1.48712 44.4852 1.90771 44.5974 2.33256 44.5789H21.6442C27.335 44.5789 32.7928 42.2476 36.8168 38.0978C40.8409 33.948 43.1016 28.3197 43.1016 22.4511C43.1016 16.5824 40.8409 10.9541 36.8168 6.80429C32.7928 2.6545 27.335 0.323181 21.6442 0.323181V0.323181ZM21.6442 40.1534H7.50378L9.49932 38.0955C9.70207 37.8905 9.86336 37.6461 9.97386 37.3765C10.0844 37.1068 10.1419 36.8172 10.143 36.5244C10.135 35.9407 9.90361 35.384 9.49932 34.9754C6.68966 32.0812 4.94 28.2719 4.54844 24.1965C4.15688 20.1211 5.14764 16.0318 7.35193 12.6252C9.55621 9.21867 12.8376 6.70565 16.6371 5.51432C20.4367 4.32299 24.5192 4.52705 28.1892 6.09173C31.8591 7.65641 34.8895 10.4849 36.764 14.0953C38.6385 17.7057 39.2411 21.8747 38.4692 25.892C37.6973 29.9092 35.5986 33.5262 32.5307 36.1266C29.4628 38.7271 25.6154 40.1501 21.6442 40.1534V40.1534Z" fill="url(#paint0_radial_115_3576)"/>
<defs>
<radialGradient id="paint0_radial_115_3576" cx="0" cy="0" r="1" gradientUnits="userSpaceOnUse" gradientTransform="translate(-48.2208 -19.5277) rotate(32.867) scale(118.131 119.61)">
<stop offset="0.664004" stop-color="#E7181C"/>
<stop offset="0.967825" stop-color="#F07577"/>
</radialGradient>
</defs>
</svg>
