<svg width="35" height="30" viewBox="0 0 35 30" fill="none" xmlns="http://www.w3.org/2000/svg">
<path d="M2.41496 29.9529H32.8232C34.0868 29.9529 34.8745 28.5908 34.2509 27.4913L19.0386 1.23489C18.3986 0.135406 16.8232 0.135406 16.1996 1.23489L0.987272 27.4913C0.363682 28.5908 1.15137 29.9529 2.41496 29.9529ZM19.2683 25.0298H15.9862V21.7477H19.2683V25.0298ZM17.6273 18.4657C16.7247 18.4657 15.9862 17.7272 15.9862 16.8246V13.5426C15.9862 12.64 16.7247 11.9016 17.6273 11.9016C18.5298 11.9016 19.2683 12.64 19.2683 13.5426V16.8246C19.2683 17.7272 18.5298 18.4657 17.6273 18.4657Z" fill="url(#paint0_radial_1620_3102)"/>
<defs>
<radialGradient id="paint0_radial_1620_3102" cx="0" cy="0" r="1" gradientUnits="userSpaceOnUse" gradientTransform="translate(-37.1429 -12.8404) rotate(28.8106) scale(88.7983 83.2903)">
<stop offset="0.664004" stop-color="#E7181C"/>
<stop offset="0.967825" stop-color="#F07577"/>
</radialGradient>
</defs>
</svg>
