<svg width="38" height="35" viewBox="0 0 38 35" fill="none" xmlns="http://www.w3.org/2000/svg">
<path d="M2.42082 34.5324H36.1117C37.5117 34.5324 38.3845 32.9762 37.6935 31.7199L20.839 1.71996C20.1299 0.463709 18.3845 0.463709 17.6935 1.71996L0.838997 31.7199C0.148088 32.9762 1.02082 34.5324 2.42082 34.5324V34.5324ZM21.0935 28.9074H17.4572V25.1574H21.0935V28.9074ZM19.2754 21.4074C18.2754 21.4074 17.4572 20.5637 17.4572 19.5324V15.7824C17.4572 14.7512 18.2754 13.9074 19.2754 13.9074C20.2754 13.9074 21.0935 14.7512 21.0935 15.7824V19.5324C21.0935 20.5637 20.2754 21.4074 19.2754 21.4074Z" fill="url(#paint0_radial_115_3557)"/>
<defs>
<radialGradient id="paint0_radial_115_3557" cx="0" cy="0" r="1" gradientUnits="userSpaceOnUse" gradientTransform="translate(-41.4075 -14.3622) rotate(29.5611) scale(99.107 94.4717)">
<stop offset="0.664004" stop-color="#E7181C"/>
<stop offset="0.967825" stop-color="#F07577"/>
</radialGradient>
</defs>
</svg>
