<svg width="44" height="44" viewBox="0 0 44 44" fill="none" xmlns="http://www.w3.org/2000/svg">
<path d="M30.9245 14.0638C31.6175 13.3675 32.7414 13.3675 33.4344 14.0638C34.1273 14.7603 34.1273 15.8897 33.4344 16.586L20.1045 29.9804C19.4113 30.6767 18.2873 30.6767 17.5944 29.9804L10.9292 23.2832C10.2362 22.5869 10.2362 21.4575 10.9292 20.7612C11.6224 20.0647 12.7464 20.0647 13.4393 20.7612L18.8494 26.1974L30.9245 14.0638V14.0638ZM22.1817 0.647461C28.0551 0.647461 33.3739 3.04034 37.2235 6.90845C41.0731 10.7763 43.4545 16.1209 43.4545 22.0223C43.4545 27.9247 41.0733 33.2683 37.2235 37.1364C33.3739 41.0045 28.0551 43.3974 22.1817 43.3974C16.3077 43.3974 10.9895 41.0048 7.1401 37.1364C3.29001 33.2683 0.909058 27.9247 0.909058 22.0223C0.909058 16.1209 3.29049 10.7763 7.1401 6.90845C10.9895 3.03986 16.3077 0.647461 22.1817 0.647461V0.647461ZM34.7136 9.43039C31.5067 6.20833 27.0759 4.21514 22.1817 4.21514C17.2873 4.21514 12.8564 6.20833 9.64998 9.43039C6.44332 12.6525 4.45968 17.1049 4.45968 22.0223C4.45968 26.9405 6.44332 31.3927 9.64998 34.6145C12.8564 37.8365 17.2873 39.8295 22.1817 39.8295C27.0759 39.8295 31.5067 37.8365 34.7136 34.6145C37.9203 31.3927 39.9037 26.9405 39.9037 22.0223C39.9037 17.1049 37.9203 12.6525 34.7136 9.43039V9.43039Z" fill="url(#paint0_radial_119_3397)"/>
<defs>
<radialGradient id="paint0_radial_119_3397" cx="0" cy="0" r="1" gradientUnits="userSpaceOnUse" gradientTransform="translate(-46.9546 -18.5271) rotate(32.2275) scale(116.12 116.361)">
<stop offset="0.664004" stop-color="#E7181C"/>
<stop offset="0.967825" stop-color="#F07577"/>
</radialGradient>
</defs>
</svg>
