<svg width="28" height="31" viewBox="0 0 28 31" fill="none" xmlns="http://www.w3.org/2000/svg">
<path d="M23.1 1H4.90007C3.86573 1 2.87375 1.33341 2.14236 1.92687C1.41097 2.52034 1.00008 3.32526 1.00008 4.16455V28.4261C0.996113 28.8335 1.13944 29.2329 1.41231 29.5748C1.68519 29.9168 2.07565 30.1864 2.53538 30.3501C2.87272 30.4743 3.23872 30.5391 3.60917 30.54C4.24381 30.5388 4.85547 30.3472 5.32647 30.002L13.1355 24.3702C13.3736 24.1982 13.6813 24.1031 14 24.1031C14.3188 24.1031 14.6265 24.1982 14.8645 24.3702L22.6723 30.002C23.0469 30.2723 23.5097 30.4489 24.0051 30.5107C24.5005 30.5725 25.0073 30.5167 25.4646 30.3502C25.9218 30.1837 26.31 29.9135 26.5824 29.5721C26.8548 29.2308 26.9999 28.8328 27 28.4261V4.16455C27 3.32526 26.5891 2.52034 25.8577 1.92687C25.1263 1.33341 24.1344 1 23.1 1ZM24.4 28.4261L16.5909 22.7942C15.8771 22.2794 14.9551 21.995 14 21.995C13.0449 21.995 12.123 22.2794 11.4091 22.7942L3.60007 28.4261V4.16455C3.60007 3.88478 3.73704 3.61648 3.98083 3.41866C4.22463 3.22083 4.55529 3.1097 4.90007 3.1097H23.1C23.4448 3.1097 23.7755 3.22083 24.0192 3.41866C24.263 3.61648 24.4 3.88478 24.4 4.16455L24.4091 28.4261H24.4Z" fill="#E7181C" stroke="#E7181C" stroke-width="0.8"/>
</svg>
