<svg width="26" height="30" viewBox="0 0 26 30" fill="none" xmlns="http://www.w3.org/2000/svg">
<path d="M23.8398 10.8063L5.64075 0.464308C4.92252 0.0580303 4.11153 -0.0866074 3.31834 0.0501151C2.52514 0.186838 1.78835 0.598266 1.20842 1.22831C0.628483 1.85835 0.233628 2.67634 0.0776884 3.57075C-0.0782511 4.46517 0.0123132 5.39248 0.337034 6.22626L3.45686 14.16C3.52765 14.3518 3.56411 14.5578 3.56411 14.7658C3.56411 14.9738 3.52765 15.1797 3.45686 15.3715L0.337034 23.3053C0.0727583 23.98 -0.0389634 24.7192 0.0120217 25.4555C0.0630067 26.1918 0.275082 26.9019 0.628974 27.5214C0.982867 28.1409 1.46736 28.65 2.03841 29.0025C2.60947 29.3551 3.24898 29.5398 3.89884 29.54C4.50751 29.5331 5.10711 29.3716 5.65374 29.0672L23.8528 18.7253C24.4983 18.3562 25.0409 17.7905 25.4201 17.0913C25.7992 16.3922 26 15.5871 26 14.7658C26 13.9445 25.7992 13.1393 25.4201 12.4402C25.0409 11.741 24.4983 11.1754 23.8528 10.8063H23.8398ZM22.6828 16.0807L4.48381 26.4226C4.24483 26.553 3.97649 26.5973 3.71475 26.5495C3.45302 26.5016 3.21041 26.364 3.01945 26.155C2.8285 25.946 2.69833 25.6757 2.6464 25.3802C2.59447 25.0848 2.62325 24.7783 2.7289 24.502L5.83573 16.5682C5.87595 16.4623 5.91068 16.3538 5.93973 16.2432H14.8962C15.241 16.2432 15.5716 16.0875 15.8154 15.8105C16.0592 15.5334 16.1962 15.1576 16.1962 14.7658C16.1962 14.3739 16.0592 13.9981 15.8154 13.7211C15.5716 13.444 15.241 13.2883 14.8962 13.2883H5.93973C5.91068 13.1778 5.87595 13.0693 5.83573 12.9633L2.7289 5.02955C2.62325 4.75321 2.59447 4.44678 2.6464 4.15132C2.69833 3.85586 2.8285 3.58552 3.01945 3.37653C3.21041 3.16754 3.45302 3.0299 3.71475 2.98206C3.97649 2.93423 4.24483 2.97848 4.48381 3.1089L22.6828 13.4509C22.8958 13.5748 23.0744 13.7632 23.1992 13.9952C23.324 14.2272 23.39 14.4939 23.39 14.7658C23.39 15.0377 23.324 15.3043 23.1992 15.5363C23.0744 15.7683 22.8958 15.9567 22.6828 16.0807V16.0807Z" fill="url(#paint0_radial_122_3724)"/>
<defs>
<radialGradient id="paint0_radial_122_3724" cx="0" cy="0" r="1" gradientUnits="userSpaceOnUse" gradientTransform="translate(-29.25 -13.2496) rotate(35.4816) scale(73.7189 77.398)">
<stop offset="0.664004" stop-color="#E7181C"/>
<stop offset="0.967825" stop-color="#F07577"/>
</radialGradient>
</defs>
</svg>
