<svg width="40" height="40" viewBox="0 0 40 40" fill="none" xmlns="http://www.w3.org/2000/svg">
<path d="M12.3109 18.0664C11.9279 18.0664 11.5535 18.1799 11.235 18.3927C10.9165 18.6055 10.6683 18.908 10.5217 19.2619C10.3751 19.6158 10.3368 20.0052 10.4115 20.3808C10.4862 20.7565 10.6707 21.1016 10.9415 21.3725C11.2123 21.6433 11.5574 21.8277 11.9331 21.9025C12.3088 21.9772 12.6982 21.9389 13.0521 21.7923C13.4059 21.6457 13.7084 21.3975 13.9212 21.079C14.134 20.7605 14.2476 20.3861 14.2476 20.003C14.2476 19.4894 14.0436 18.9968 13.6804 18.6336C13.3172 18.2704 12.8246 18.0664 12.3109 18.0664ZM20.0576 18.0664C19.6746 18.0664 19.3001 18.1799 18.9816 18.3927C18.6632 18.6055 18.4149 18.908 18.2683 19.2619C18.1218 19.6158 18.0834 20.0052 18.1581 20.3808C18.2329 20.7565 18.4173 21.1016 18.6882 21.3725C18.959 21.6433 19.3041 21.8277 19.6798 21.9025C20.0554 21.9772 20.4448 21.9389 20.7987 21.7923C21.1526 21.6457 21.4551 21.3975 21.6679 21.079C21.8807 20.7605 21.9943 20.3861 21.9943 20.003C21.9943 19.4894 21.7902 18.9968 21.427 18.6336C21.0638 18.2704 20.5712 18.0664 20.0576 18.0664ZM27.8043 18.0664C27.4212 18.0664 27.0468 18.1799 26.7283 18.3927C26.4098 18.6055 26.1616 18.908 26.015 19.2619C25.8684 19.6158 25.8301 20.0052 25.9048 20.3808C25.9795 20.7565 26.164 21.1016 26.4348 21.3725C26.7057 21.6433 27.0507 21.8277 27.4264 21.9025C27.8021 21.9772 28.1915 21.9389 28.5454 21.7923C28.8993 21.6457 29.2017 21.3975 29.4145 21.079C29.6273 20.7605 29.7409 20.3861 29.7409 20.003C29.7409 19.4894 29.5369 18.9968 29.1737 18.6336C28.8105 18.2704 28.3179 18.0664 27.8043 18.0664ZM20.0576 0.636353C17.5143 0.636353 14.996 1.13729 12.6463 2.11055C10.2966 3.08382 8.16166 4.51036 6.3633 6.30872C2.73135 9.94067 0.69094 14.8667 0.69094 20.003C0.674009 24.475 2.22244 28.812 5.0678 32.2621L1.19447 36.1355C0.925746 36.4078 0.743707 36.7536 0.671326 37.1293C0.598944 37.505 0.639465 37.8937 0.787773 38.2464C0.948628 38.5949 1.20939 38.8877 1.53697 39.0877C1.86454 39.2877 2.24415 39.3858 2.6276 39.3697H20.0576C25.1939 39.3697 30.1199 37.3293 33.7519 33.6973C37.3838 30.0654 39.4242 25.1394 39.4242 20.003C39.4242 14.8667 37.3838 9.94067 33.7519 6.30872C30.1199 2.67676 25.1939 0.636353 20.0576 0.636353ZM20.0576 35.4964H7.29497L9.09607 33.6953C9.27906 33.5159 9.42464 33.302 9.52437 33.066C9.6241 32.8299 9.676 32.5765 9.67706 32.3202C9.66979 31.8094 9.46096 31.3221 9.09607 30.9646C6.56017 28.4315 4.98099 25.0975 4.62758 21.5307C4.27417 17.9638 5.1684 14.3848 7.1579 11.4033C9.14741 8.42183 12.1091 6.22239 15.5384 5.17972C18.9677 4.13705 22.6524 4.31564 25.9648 5.68508C29.2772 7.05451 32.0123 9.53006 33.7042 12.69C35.396 15.8499 35.9399 19.4986 35.2432 23.0146C34.5465 26.5305 32.6523 29.6961 29.8833 31.9721C27.1143 34.2481 23.6419 35.4935 20.0576 35.4964Z" fill="url(#paint0_radial_1620_3095)"/>
<defs>
<radialGradient id="paint0_radial_1620_3095" cx="0" cy="0" r="1" gradientUnits="userSpaceOnUse" gradientTransform="translate(-43 -16.7375) rotate(32.0685) scale(105.68 105.617)">
<stop offset="0.664004" stop-color="#E7181C"/>
<stop offset="0.967825" stop-color="#F07577"/>
</radialGradient>
</defs>
</svg>
