<svg width="130" height="40" viewBox="0 0 130 40" fill="none" xmlns="http://www.w3.org/2000/svg">
<rect width="130" height="40" rx="6" fill="white"/>
<path fill-rule="evenodd" clip-rule="evenodd" d="M25.7689 20.5804C25.7907 18.8839 26.6801 17.3169 28.1254 16.4284C27.2095 15.1202 25.7304 14.3206 24.1343 14.2707C22.455 14.0944 20.8271 15.2755 19.9714 15.2755C19.0991 15.2755 17.7816 14.2882 16.3629 14.3174C14.4962 14.3777 12.7981 15.4133 11.89 17.0452C9.95596 20.3937 11.3985 25.3147 13.2512 28.0213C14.1781 29.3467 15.2613 30.8271 16.6788 30.7746C18.0658 30.7171 18.5839 29.8901 20.2582 29.8901C21.917 29.8901 22.403 30.7746 23.8492 30.7412C25.3376 30.7171 26.2753 29.41 27.1697 28.0721C27.8357 27.1277 28.3481 26.084 28.6881 24.9796C26.9204 24.2319 25.7709 22.4998 25.7689 20.5804Z" fill="black"/>
<path fill-rule="evenodd" clip-rule="evenodd" d="M23.0372 12.4906C23.8488 11.5164 24.2486 10.2642 24.1518 9C22.9119 9.13022 21.7667 9.72278 20.9442 10.6596C20.132 11.5839 19.7206 12.7932 19.8005 14.021C21.0569 14.0339 22.2499 13.4699 23.0372 12.4906Z" fill="black"/>
<path d="M56.9199 15.4766C59.2177 15.4766 60.7324 17.293 60.7324 20.0987C60.7324 22.9122 59.2266 24.7198 56.9541 24.7198C55.7795 24.7812 54.6731 24.166 54.1055 23.1358H54.0625V27.6202H52.2041V15.5713H54.0029V17.0772H54.0371C54.6299 16.0534 55.7375 15.4385 56.9199 15.4766ZM66.8847 15.4766C69.1826 15.4766 70.6973 17.293 70.6973 20.0987C70.6973 22.9122 69.1914 24.7198 66.9189 24.7198C65.7443 24.7812 64.6379 24.166 64.0703 23.1358H64.0273V27.6202H62.1689V15.5713H63.9677V17.0772H64.0019C64.5947 16.0534 65.7023 15.4385 66.8847 15.4766ZM80.2266 12C82.8506 12 84.6494 13.4717 84.71 15.6143H82.834C82.7217 14.375 81.6972 13.627 80.2002 13.627C78.7031 13.627 77.6787 14.3838 77.6787 15.4854C77.6787 16.3633 78.333 16.8799 79.9336 17.2754L81.3017 17.6113C83.8496 18.2138 84.9082 19.2373 84.9082 21.0537C84.9082 23.3769 83.0576 24.832 80.1142 24.832C77.3603 24.832 75.501 23.4111 75.3808 21.165L77.2832 21.1651C77.4209 22.3965 78.6172 23.2051 80.2519 23.2051C81.8184 23.2051 82.9453 22.3965 82.9453 21.2861C82.9453 20.3223 82.2656 19.7451 80.6562 19.3496L79.0469 18.9619C76.7666 18.4111 75.708 17.3447 75.708 15.6143C75.708 13.4717 77.5752 12 80.2266 12ZM95.9317 15.46C98.5567 15.46 100.227 17.25 100.227 20.0987C100.227 22.9551 98.5655 24.7374 95.9317 24.7374C93.2988 24.7374 91.6377 22.9551 91.6377 20.0987C91.6377 17.2501 93.3155 15.46 95.9317 15.46ZM110.98 15.46C113.485 15.46 115.061 17.1807 115.061 19.9258V20.5625H108.666V20.6749C108.606 21.3489 108.839 22.0161 109.305 22.5067C109.771 22.9974 110.425 23.2642 111.102 23.2393C112.003 23.3238 112.854 22.8059 113.192 21.9659L114.957 21.9659C114.707 23.6094 113.106 24.7374 111.059 24.7374C108.425 24.7374 106.79 22.9727 106.79 20.1416C106.79 17.3018 108.434 15.46 110.98 15.46ZM88.9189 13.4288V15.5713H90.6406V17.043H88.9189V22.0342C88.9189 22.8096 89.2637 23.1709 90.0205 23.1709C90.2249 23.1674 90.429 23.153 90.6318 23.1279V24.5908C90.2916 24.6544 89.9457 24.6832 89.5996 24.6768C87.7666 24.6768 87.0518 23.9883 87.0518 22.2324V17.043H85.7354V15.5713H87.0517V13.4288H88.9189ZM46.5664 12.2071L51.0498 24.6251H49.0107L47.875 21.2686H43.1416L42.0049 24.6251H40L44.4834 12.2071H46.5664ZM105.752 15.4766C105.966 15.4759 106.18 15.4991 106.389 15.5459V17.2842C106.118 17.2016 105.836 17.1637 105.554 17.1719C105.007 17.1498 104.479 17.3675 104.106 17.768C103.734 18.1684 103.555 18.7116 103.617 19.2549V24.625H101.759V15.5713H103.531V17.1123H103.574C103.821 16.1203 104.73 15.4376 105.752 15.4766ZM95.9317 16.9913C94.4258 16.9913 93.5313 18.1534 93.5313 20.0987C93.5313 22.0606 94.4258 23.2051 95.9317 23.2051C97.4375 23.2051 98.333 22.0606 98.333 20.0987C98.333 18.1446 97.4375 16.9913 95.9317 16.9913ZM56.4297 17.0606C55.0098 17.0606 54.0547 18.2911 54.0547 20.0987C54.0547 21.9229 55.0098 23.1446 56.4297 23.1446C57.875 23.1446 58.8223 21.9483 58.8223 20.0987C58.8223 18.2657 57.875 17.0606 56.4297 17.0606ZM66.3945 17.0606C64.9746 17.0606 64.0195 18.2911 64.0195 20.0987C64.0195 21.9229 64.9746 23.1446 66.3945 23.1446C67.8398 23.1446 68.7871 21.9483 68.7871 20.0987C68.7871 18.2657 67.8398 17.0606 66.3945 17.0606ZM45.5342 14.2725H45.4825L43.6318 19.7198H47.3838L45.5342 14.2725ZM110.98 16.9659C110.369 16.9622 109.782 17.2029 109.349 17.6344C108.916 18.0659 108.673 18.6525 108.675 19.2637H113.201C113.235 18.6581 113.014 18.0658 112.593 17.6296C112.171 17.1934 111.587 16.9528 110.98 16.9659Z" fill="black"/>
</svg>
