<svg width="130" height="40" viewBox="0 0 130 40" fill="none" xmlns="http://www.w3.org/2000/svg">
<rect width="130" height="40" rx="6" fill="white"/>
<path fill-rule="evenodd" clip-rule="evenodd" d="M9.435 7.54698C9.144 7.85498 8.973 8.33198 8.973 8.95098V31.049C8.973 31.668 9.144 32.145 9.435 32.453L9.509 32.525L21.888 20.146V19.854L9.509 7.47498L9.435 7.54698Z" fill="#00D7FE"/>
<mask id="mask0_302_439" style="mask-type:alpha" maskUnits="userSpaceOnUse" x="21" y="15" width="12" height="10">
<path d="M26.013 24.274L21.888 20.146V19.854L26.015 15.727L30.997 18.557C32.393 19.351 32.393 20.649 30.997 21.442L26.108 24.22L26.013 24.274Z" fill="white"/>
</mask>
<g mask="url(#mask0_302_439)">
<path fill-rule="evenodd" clip-rule="evenodd" d="M26.013 24.274L21.888 20.146V19.854L26.015 15.727L30.997 18.557C32.393 19.351 32.393 20.649 30.997 21.442L26.108 24.22L26.013 24.274Z" fill="url(#paint0_linear_302_439)"/>
</g>
<mask id="mask1_302_439" style="mask-type:alpha" maskUnits="userSpaceOnUse" x="9" y="20" width="18" height="13">
<path d="M26.108 24.22L21.888 20L9.435 32.453C9.896 32.94 10.656 33 11.512 32.514L26.108 24.22Z" fill="white"/>
</mask>
<g mask="url(#mask1_302_439)">
<path fill-rule="evenodd" clip-rule="evenodd" d="M26.108 24.22L21.888 20L9.435 32.453C9.896 32.94 10.656 33 11.512 32.514L26.108 24.22Z" fill="url(#paint1_linear_302_439)"/>
</g>
<mask id="mask2_302_439" style="mask-type:alpha" maskUnits="userSpaceOnUse" x="9" y="7" width="18" height="13">
<path d="M26.108 15.78L11.512 7.48599C10.656 6.99999 9.896 7.05999 9.435 7.54699L21.888 20L26.108 15.78Z" fill="white"/>
</mask>
<g mask="url(#mask2_302_439)">
<path fill-rule="evenodd" clip-rule="evenodd" d="M26.108 15.78L11.512 7.48599C10.656 6.99999 9.896 7.05999 9.435 7.54699L21.888 20L26.108 15.78Z" fill="url(#paint2_linear_302_439)"/>
</g>
<path fill-rule="evenodd" clip-rule="evenodd" d="M103.894 23.953H105.76V11.452H103.894V23.953ZM120.701 15.955L118.562 21.375H118.498L116.278 15.955H114.268L117.597 23.53L115.699 27.744H117.646L122.776 15.955H120.701ZM110.119 22.533C109.507 22.533 108.655 22.228 108.655 21.472C108.655 20.507 109.717 20.137 110.633 20.137C111.454 20.137 111.839 20.314 112.338 20.555C112.193 21.713 111.196 22.533 110.119 22.533ZM110.344 15.682C108.993 15.682 107.594 16.277 107.015 17.596L108.671 18.287C109.025 17.596 109.684 17.37 110.376 17.37C111.341 17.37 112.322 17.949 112.338 18.979V19.107C112 18.914 111.277 18.625 110.392 18.625C108.607 18.625 106.789 19.606 106.789 21.439C106.789 23.112 108.253 24.19 109.893 24.19C111.148 24.19 111.839 23.627 112.274 22.967H112.338V23.932H114.139V19.14C114.139 16.92 112.483 15.682 110.344 15.682ZM98.812 17.477H96.158V13.192H98.812C100.207 13.192 100.999 14.347 100.999 15.334C100.999 16.303 100.207 17.477 98.812 17.477ZM98.764 11.452H94.293V23.953H96.158V19.217H98.764C100.832 19.217 102.865 17.719 102.865 15.334C102.865 12.949 100.832 11.452 98.764 11.452ZM74.383 22.535C73.094 22.535 72.015 21.456 72.015 19.974C72.015 18.476 73.094 17.38 74.383 17.38C75.656 17.38 76.654 18.476 76.654 19.974C76.654 21.456 75.656 22.535 74.383 22.535ZM76.525 16.655H76.461C76.042 16.156 75.237 15.705 74.222 15.705C72.095 15.705 70.146 17.573 70.146 19.974C70.146 22.358 72.095 24.211 74.222 24.211C75.237 24.211 76.042 23.76 76.461 23.244H76.525V23.856C76.525 25.484 75.656 26.354 74.254 26.354C73.11 26.354 72.401 25.532 72.111 24.839L70.484 25.516C70.951 26.644 72.192 28.029 74.254 28.029C76.445 28.029 78.298 26.74 78.298 23.599V15.962H76.525V16.655ZM79.587 23.953H81.456V11.451H79.587V23.953ZM84.21 19.829C84.162 18.186 85.483 17.348 86.433 17.348C87.175 17.348 87.803 17.718 88.012 18.25L84.21 19.829ZM90.01 18.411C89.656 17.461 88.576 15.705 86.369 15.705C84.178 15.705 82.358 17.428 82.358 19.958C82.358 22.342 84.162 24.211 86.578 24.211C88.528 24.211 89.656 23.019 90.123 22.326L88.673 21.359C88.19 22.068 87.529 22.535 86.578 22.535C85.628 22.535 84.951 22.1 84.516 21.247L90.203 18.895L90.01 18.411ZM44.702 17.01V18.814H49.019C48.89 19.829 48.552 20.57 48.037 21.086C47.408 21.714 46.425 22.406 44.702 22.406C42.044 22.406 39.965 20.264 39.965 17.606C39.965 14.947 42.044 12.805 44.702 12.805C46.136 12.805 47.183 13.369 47.956 14.094L49.229 12.821C48.149 11.79 46.716 11 44.702 11C41.061 11 38 13.965 38 17.606C38 21.247 41.061 24.211 44.702 24.211C46.667 24.211 48.149 23.567 49.309 22.358C50.501 21.166 50.872 19.491 50.872 18.137C50.872 17.718 50.84 17.332 50.775 17.01H44.702ZM55.781 22.535C54.492 22.535 53.38 21.472 53.38 19.958C53.38 18.427 54.492 17.38 55.781 17.38C57.069 17.38 58.181 18.427 58.181 19.958C58.181 21.472 57.069 22.535 55.781 22.535ZM55.781 15.705C53.428 15.705 51.511 17.493 51.511 19.958C51.511 22.406 53.428 24.211 55.781 24.211C58.133 24.211 60.05 22.406 60.05 19.958C60.05 17.493 58.133 15.705 55.781 15.705ZM65.094 22.535C63.805 22.535 62.693 21.472 62.693 19.958C62.693 18.427 63.805 17.38 65.094 17.38C66.383 17.38 67.494 18.427 67.494 19.958C67.494 21.472 66.383 22.535 65.094 22.535ZM65.094 15.705C62.742 15.705 60.825 17.493 60.825 19.958C60.825 22.406 62.742 24.211 65.094 24.211C67.446 24.211 69.363 22.406 69.363 19.958C69.363 17.493 67.446 15.705 65.094 15.705Z" fill="black"/>
<defs>
<linearGradient id="paint0_linear_302_439" x1="30.0888" y1="20.0003" x2="21.888" y2="20.0003" gradientUnits="userSpaceOnUse">
<stop stop-color="#FFBC00"/>
<stop offset="1" stop-color="#FFDA03"/>
</linearGradient>
<linearGradient id="paint1_linear_302_439" x1="23.8146" y1="23.9708" x2="13.1111" y2="32.7933" gradientUnits="userSpaceOnUse">
<stop stop-color="#E22652"/>
<stop offset="1" stop-color="#FF3A44"/>
</linearGradient>
<linearGradient id="paint2_linear_302_439" x1="11.3207" y1="9.04615" x2="18.4569" y2="15.3211" gradientUnits="userSpaceOnUse">
<stop stop-color="#0ED574"/>
<stop offset="1" stop-color="#07F076"/>
</linearGradient>
</defs>
</svg>
