<svg width="21" height="10" viewBox="0 0 21 10" fill="none" xmlns="http://www.w3.org/2000/svg">
<path opacity="0.6" fill-rule="evenodd" clip-rule="evenodd" d="M0.307128 0.333194C-0.102351 0.701369 -0.102351 1.29681 0.307128 1.66408L8.98388 9.44848C9.17514 9.62274 9.40534 9.76148 9.66047 9.8563C9.9156 9.95111 10.1903 10 10.468 10C10.7456 10 11.0204 9.95111 11.2755 9.8563C11.5306 9.76148 11.7608 9.62274 11.9521 9.44848L20.6929 1.60772C20.8882 1.42977 20.998 1.19412 21 0.948616C21.0019 0.703118 20.8959 0.46618 20.7034 0.285922C20.6083 0.196625 20.4931 0.125176 20.3648 0.0759987C20.2366 0.0268217 20.0981 0.000963866 19.9578 2.64361e-05C19.8175 -0.000910993 19.6786 0.023092 19.5494 0.0705489C19.4203 0.118006 19.3039 0.187906 19.2072 0.275922L11.2098 7.45216C11.1141 7.53935 10.999 7.60879 10.8714 7.65624C10.7438 7.70368 10.6063 7.72815 10.4675 7.72815C10.3286 7.72815 10.1911 7.70368 10.0635 7.65624C9.93591 7.60879 9.82078 7.53935 9.72514 7.45216L1.7907 0.333194C1.69516 0.246022 1.58012 0.176604 1.45259 0.129166C1.32506 0.0817286 1.18772 0.0572647 1.04892 0.0572647C0.910117 0.0572647 0.772769 0.0817286 0.645241 0.129166C0.517713 0.176604 0.402673 0.246022 0.307128 0.333194" fill="#EA2F33"/>
</svg>
