<svg width="26" height="26" viewBox="0 0 26 26" fill="none" xmlns="http://www.w3.org/2000/svg">
<path d="M21.1926 11.9174C20.6987 10.8073 19.9827 9.81013 19.0887 8.98728L18.3451 8.31353C18.3203 8.29053 18.2901 8.27408 18.2574 8.26567C18.2246 8.25726 18.1902 8.25715 18.1574 8.26535C18.1246 8.27355 18.0944 8.28981 18.0694 8.31265C18.0445 8.3355 18.0256 8.3642 18.0145 8.39616L17.684 9.34322C17.4344 10.0112 17.0541 10.6227 16.5654 11.142C16.5393 11.1714 16.5028 11.1896 16.4637 11.1928C16.4429 11.1965 16.4216 11.1949 16.4016 11.1882C16.3817 11.1816 16.3637 11.17 16.3493 11.1547C16.317 11.1228 16.2987 11.0793 16.2984 11.0339C16.3168 9.22728 15.8374 7.45044 14.9128 5.89822C14.1327 4.3939 12.9485 3.13702 11.4932 2.26889L10.4635 1.65235C10.432 1.63411 10.3961 1.62466 10.3597 1.62501C10.3233 1.62535 10.2876 1.63547 10.2565 1.65431C10.2253 1.67314 10.1997 1.7 10.1825 1.73208C10.1653 1.76416 10.1569 1.80028 10.1584 1.83667L10.2156 3.05704C10.2668 3.79765 10.1696 4.54103 9.9296 5.24354C9.44722 6.52727 8.61491 7.65023 7.52699 8.48515C6.45849 9.31105 5.58954 10.3668 4.98455 11.5742C4.37965 12.7931 4.06425 14.1352 4.06292 15.4959C4.05124 16.6828 4.28269 17.8596 4.74302 18.9536C5.68717 21.1267 7.44902 22.8406 9.6473 23.7244C11.8456 24.6083 14.3035 24.5909 16.4891 23.6762C18.633 22.7824 20.3464 21.0917 21.2689 18.96C21.7438 17.8452 21.9839 16.6445 21.9741 15.4328C21.9642 14.221 21.7047 13.0244 21.2117 11.9174H21.1926ZM18.0908 20.5427C16.7298 21.8872 14.8937 22.6412 12.9805 22.6412C11.0673 22.6412 9.23124 21.8872 7.87022 20.5427C6.81526 19.4932 6.11739 18.1384 5.87553 16.6701C5.63368 15.2019 5.86011 13.6947 6.52273 12.3624C7.005 11.3861 7.70003 10.5303 8.55668 9.85806C9.10718 9.43695 9.60637 8.95269 10.044 8.41523C10.6723 7.65368 11.1725 6.79498 11.525 5.87279C11.6654 5.48973 11.7676 5.09373 11.8301 4.69056C12.4605 5.28038 12.987 5.9723 13.3873 6.73722C14.1532 8.00674 14.5556 9.4623 14.5505 10.945C14.5371 11.2093 14.5788 11.4735 14.673 11.7208C14.7673 11.9681 14.912 12.193 15.0979 12.3814C15.2839 12.5697 15.507 12.7172 15.753 12.8147C15.9991 12.9121 16.2628 12.9572 16.5272 12.9471C16.7706 12.9306 17.0083 12.8659 17.2266 12.7568C17.4448 12.6477 17.6392 12.4963 17.7984 12.3115C18.1453 11.953 18.4561 11.5612 18.7264 11.142C19.0845 11.5961 19.3835 12.0937 19.6163 12.623C20.1982 13.9414 20.3639 15.4061 20.0914 16.8212C19.8188 18.2364 19.1208 19.5347 18.0908 20.5427V20.5427Z" fill="#E7181C"/>
<path d="M15.2279 16.3963C15.0925 16.1219 14.8977 15.8755 14.6556 15.6721L14.4561 15.505C14.4514 15.4985 14.4449 15.4931 14.4374 15.4893C14.4298 15.4856 14.4213 15.4837 14.4127 15.4837C14.4042 15.4837 14.3957 15.4856 14.3881 15.4893C14.3806 15.4931 14.3741 15.4985 14.3694 15.505L14.274 15.7438C14.2104 15.9113 14.1067 16.0636 13.9705 16.1894C13.9665 15.7214 13.8127 15.2648 13.5282 14.8763C13.3185 14.5016 12.9965 14.1896 12.6002 13.9771L12.3227 13.8179C12.3137 13.814 12.3037 13.8121 12.2937 13.8126C12.2837 13.813 12.274 13.8157 12.2654 13.8204C12.2568 13.8252 12.2496 13.8318 12.2445 13.8397C12.2394 13.8475 12.2364 13.8565 12.236 13.8657V14.1681C12.2478 14.354 12.2214 14.5403 12.1579 14.7172C12.0788 14.9022 11.9675 15.0742 11.8284 15.2265C11.7348 15.3362 11.6271 15.4351 11.5075 15.5209C11.2096 15.7309 10.9715 16.0039 10.8137 16.3167C10.6594 16.6009 10.5741 16.9124 10.5636 17.2298C10.5531 17.5472 10.6177 17.8628 10.753 18.1551C10.8762 18.4168 11.0528 18.6545 11.2734 18.8554C11.4973 19.0538 11.7588 19.2129 12.0452 19.3249C12.3444 19.4405 12.6658 19.5 12.9905 19.5C13.3151 19.5 13.6365 19.4405 13.9358 19.3249C14.2361 19.2195 14.5104 19.0598 14.7423 18.8554C14.9628 18.6545 15.1394 18.4168 15.2626 18.1551C15.3885 17.8726 15.4476 17.5688 15.4361 17.2638C15.4366 16.9539 15.3657 16.6474 15.2279 16.3645V16.3963Z" fill="#E7181C"/>
</svg>
