<svg width="31" height="31" viewBox="0 0 31 31" fill="none" xmlns="http://www.w3.org/2000/svg">
<g clip-path="url(#clip0_1815_4119)">
<path d="M15.5 31.0124C24.0604 31.0124 31 24.07 31 15.5062C31 6.94236 24.0604 0 15.5 0C6.93959 0 0 6.94236 0 15.5062C0 24.07 6.93959 31.0124 15.5 31.0124Z" fill="url(#paint0_radial_1815_4119)"/>
<path d="M10.7378 5.3689H20.4018C20.6166 5.47627 20.9387 5.47627 21.1534 5.58365C22.0958 5.73638 22.9769 6.14891 23.6978 6.77488C24.4186 7.40085 24.9505 8.21545 25.2338 9.12712C25.3924 9.65249 25.5003 10.1918 25.5559 10.7378V20.187C25.4024 21.3846 24.9602 22.527 24.2674 23.5158C23.673 24.2044 22.9279 24.7467 22.0898 25.1006C21.2518 25.4544 20.3435 25.6102 19.4354 25.5559H11.3821C9.94486 25.6257 8.53177 25.1674 7.40908 24.2674C6.72637 23.6775 6.18761 22.9394 5.834 22.1093C5.48039 21.2793 5.3213 20.3793 5.3689 19.4784V11.9619C5.35116 11.4228 5.38713 10.8832 5.47627 10.3512C5.5847 9.25038 6.03734 8.2117 6.76984 7.38281C7.50235 6.55392 8.47748 5.97698 9.55663 5.73398L10.7378 5.3689ZM7.40908 15.5698V19.7575C7.36329 20.2908 7.43464 20.8277 7.61811 21.3305C7.80158 21.8333 8.09274 22.2899 8.47122 22.6684C8.84969 23.0468 9.30632 23.338 9.80913 23.5215C10.3119 23.705 10.8488 23.7763 11.3821 23.7305C14.1739 23.8379 16.9657 23.8379 19.7575 23.7305C22.2272 23.7305 23.6231 22.2272 23.7305 19.7575C23.8379 16.9657 23.8379 14.1739 23.7305 11.3821C23.7583 10.853 23.6746 10.324 23.4848 9.82936C23.295 9.33473 23.0033 8.88553 22.6287 8.51091C22.2541 8.13629 21.8049 7.8446 21.3102 7.65478C20.8156 7.46497 20.2866 7.38125 19.7575 7.40908C16.9657 7.3017 14.1739 7.3017 11.3821 7.40908C10.8488 7.36329 10.3119 7.43464 9.80913 7.61811C9.30632 7.80158 8.84969 8.09274 8.47122 8.47122C8.09274 8.84969 7.80158 9.30632 7.61811 9.80913C7.43464 10.3119 7.36329 10.8488 7.40908 11.3821V15.5698Z" fill="white"/>
<path d="M10.3512 15.6127C10.3541 14.2181 10.9093 12.8815 11.8954 11.8954C12.8815 10.9093 14.2182 10.354 15.6127 10.3512C16.9996 10.3787 18.322 10.9418 19.3028 11.9227C20.2836 12.9035 20.8468 14.2259 20.8743 15.6127C20.8714 17.0073 20.3162 18.3439 19.3301 19.33C18.344 20.3161 17.0073 20.8714 15.6127 20.8742C14.2259 20.8468 12.9035 20.2836 11.9227 19.3028C10.9419 18.3219 10.3787 16.9995 10.3512 15.6127V15.6127ZM15.6127 12.284C14.9606 12.2734 14.3201 12.4578 13.7733 12.8135C13.2266 13.1693 12.7986 13.6802 12.544 14.2807C12.2895 14.8813 12.2202 15.5442 12.3448 16.1845C12.4695 16.8247 12.7825 17.4132 13.2437 17.8744C13.7049 18.3356 14.2934 18.6486 14.9336 18.7733C15.5739 18.8979 16.2368 18.8285 16.8373 18.574C17.4379 18.3195 17.9488 17.8915 18.3046 17.3448C18.6603 16.798 18.8447 16.1575 18.8341 15.5053C18.8341 14.651 18.4947 13.8316 17.8906 13.2275C17.2865 12.6234 16.4671 12.284 15.6127 12.284V12.284Z" fill="white"/>
<path d="M19.6931 10.1365C19.6871 9.96564 19.7163 9.79541 19.779 9.63636C19.8416 9.47731 19.9363 9.33286 20.0572 9.21199C20.178 9.09112 20.3225 8.99643 20.4815 8.93379C20.6406 8.87116 20.8108 8.84194 20.9816 8.84794C21.3159 8.87055 21.6307 9.01356 21.8676 9.25049C22.1045 9.48741 22.2476 9.80218 22.2702 10.1365C22.2702 10.4782 22.1344 10.806 21.8928 11.0476C21.6511 11.2892 21.3234 11.425 20.9816 11.425C20.6399 11.425 20.3122 11.2892 20.0705 11.0476C19.8289 10.806 19.6931 10.4782 19.6931 10.1365V10.1365Z" fill="white"/>
</g>
<defs>
<radialGradient id="paint0_radial_1815_4119" cx="0" cy="0" r="1" gradientUnits="userSpaceOnUse" gradientTransform="translate(-34.875 -13.91) rotate(32.114) scale(84.5032 84.5179)">
<stop offset="0.664004" stop-color="#E7181C"/>
<stop offset="0.967825" stop-color="#F07577"/>
</radialGradient>
<clipPath id="clip0_1815_4119">
<rect width="31" height="31" fill="white"/>
</clipPath>
</defs>
</svg>
