<svg width="31" height="31" viewBox="0 0 31 31" fill="none" xmlns="http://www.w3.org/2000/svg">
<g clip-path="url(#clip0_1815_4115)">
<path d="M15.5 31.0124C24.0604 31.0124 31 24.07 31 15.5062C31 6.94236 24.0604 0 15.5 0C6.93959 0 0 6.94236 0 15.5062C0 24.07 6.93959 31.0124 15.5 31.0124Z" fill="url(#paint0_radial_1815_4115)"/>
<path d="M16.5336 23.3465C16.5336 23.3465 16.5336 17.1452 16.5336 17.1449C16.4975 16.0053 17.1787 14.9418 18.5495 14.894C19.8852 14.894 20.4196 15.9124 20.4196 17.4054V23.3462H24.1111V16.9785C24.1111 13.5672 22.29 11.9799 19.861 11.9799C17.8696 11.9799 16.9949 13.0927 16.509 13.8508L16.5336 12.2406H12.8422C12.8902 13.2826 12.8419 23.3465 12.8419 23.3465H16.5336ZM10.7985 18.5305V12.2404H7.10653V23.3462H10.7988C10.798 22.1801 10.8001 19.6802 10.7985 18.5305ZM8.9533 10.7244C10.2404 10.7244 11.0419 9.87157 11.0419 8.80599C11.0312 6.23567 6.88552 6.26424 6.88889 8.80573C6.88604 9.87962 7.70957 10.7377 8.9533 10.7244Z" fill="#E7EBF0"/>
</g>
<defs>
<radialGradient id="paint0_radial_1815_4115" cx="0" cy="0" r="1" gradientUnits="userSpaceOnUse" gradientTransform="translate(-34.875 -13.91) rotate(32.114) scale(84.5032 84.5179)">
<stop offset="0.664004" stop-color="#E7181C"/>
<stop offset="0.967825" stop-color="#F07577"/>
</radialGradient>
<clipPath id="clip0_1815_4115">
<rect width="31" height="31" fill="white"/>
</clipPath>
</defs>
</svg>
