<svg width="31" height="31" viewBox="0 0 31 31" fill="none" xmlns="http://www.w3.org/2000/svg">
<g clip-path="url(#clip0_1815_4141)">
<path d="M15.5 31.0124C24.0604 31.0124 31 24.07 31 15.5062C31 6.94236 24.0604 0 15.5 0C6.93959 0 0 6.94236 0 15.5062C0 24.07 6.93959 31.0124 15.5 31.0124Z" fill="url(#paint0_radial_1815_4141)"/>
<path d="M16.5336 23.3465C16.5336 23.3465 16.5336 17.1452 16.5336 17.1449C16.4975 16.0053 17.1787 14.9418 18.5495 14.894C19.8852 14.894 20.4196 15.9124 20.4196 17.4054V23.3462H24.1111V16.9785C24.1111 13.5672 22.29 11.9799 19.861 11.9799C17.8696 11.9799 16.9949 13.0927 16.509 13.8508L16.5336 12.2406H12.8422C12.8902 13.2826 12.8419 23.3465 12.8419 23.3465H16.5336ZM10.7985 18.5305V12.2404H7.10653V23.3462H10.7988C10.798 22.1801 10.8001 19.6802 10.7985 18.5305ZM8.9533 10.7244C10.2404 10.7244 11.0419 9.87157 11.0419 8.80599C11.0312 6.23567 6.88552 6.26424 6.88889 8.80573C6.88604 9.87962 7.70957 10.7377 8.9533 10.7244Z" fill="#E7EBF0"/>
<g clip-path="url(#clip1_1815_4141)">
<path d="M15.5 31C24.0604 31 31 24.0604 31 15.5C31 6.93959 24.0604 0 15.5 0C6.93959 0 0 6.93959 0 15.5C0 24.0604 6.93959 31 15.5 31Z" fill="url(#paint1_radial_1815_4141)"/>
<path d="M16.1076 8.29846C11.7738 8.29846 9.58521 11.36 9.58521 13.9134C9.58521 15.4628 10.1804 16.8324 11.4514 17.3468C11.6622 17.4336 11.8482 17.353 11.9102 17.1237C11.9536 16.9688 12.1458 16.566 12.1892 16.4048C12.2512 16.1817 12.2264 16.1011 12.059 15.9028C11.6932 15.4752 11.4638 15.029 11.4638 14.2481C11.4638 11.6451 13.0882 9.79206 15.8534 9.79206C18.3024 9.79206 19.6478 11.3105 19.6478 13.2813C19.6478 15.8718 18.4822 17.979 16.7524 17.979C15.7976 17.979 15.0846 17.2849 15.314 16.3304C15.5868 15.1901 16.12 13.963 16.12 13.1387C16.12 12.4012 15.7232 11.8744 14.8924 11.8744C13.919 11.8744 13.1316 12.7855 13.1316 14.1179C13.1316 14.967 13.4106 15.3884 13.4106 15.3884C13.4106 15.3884 12.4248 19.7081 12.245 20.4394C11.8978 21.8958 12.1954 23.6745 12.2202 23.8542C12.2326 23.9596 12.3752 23.9844 12.4372 23.9038C12.524 23.7923 13.6896 22.373 14.0864 20.96C14.198 20.5634 14.7312 18.4934 14.7312 18.4934C15.0474 19.0883 15.9774 19.4726 16.957 19.4726C19.8896 19.4726 21.8798 16.975 21.8798 13.4548C21.886 10.7837 19.592 8.29846 16.1076 8.29846V8.29846Z" fill="white"/>
</g>
</g>
<defs>
<radialGradient id="paint0_radial_1815_4141" cx="0" cy="0" r="1" gradientUnits="userSpaceOnUse" gradientTransform="translate(-34.875 -13.91) rotate(32.114) scale(84.5032 84.5179)">
<stop offset="0.664004" stop-color="#E7181C"/>
<stop offset="0.967825" stop-color="#F07577"/>
</radialGradient>
<radialGradient id="paint1_radial_1815_4141" cx="0" cy="0" r="1" gradientUnits="userSpaceOnUse" gradientTransform="translate(-34.875 -13.9044) rotate(32.1037) scale(84.4936 84.4936)">
<stop offset="0.664004" stop-color="#E7181C"/>
<stop offset="0.967825" stop-color="#F07577"/>
</radialGradient>
<clipPath id="clip0_1815_4141">
<rect width="31" height="31" fill="white"/>
</clipPath>
<clipPath id="clip1_1815_4141">
<rect width="31" height="31" fill="white"/>
</clipPath>
</defs>
</svg>
