<svg width="31" height="31" viewBox="0 0 31 31" fill="none" xmlns="http://www.w3.org/2000/svg">
<g clip-path="url(#clip0_1815_4130)">
<g clip-path="url(#clip1_1815_4130)">
<path d="M15.5005 30.9997C24.0608 30.9997 31.0004 24.0602 31.0004 15.4999C31.0004 6.93953 24.0608 0 15.5005 0C6.94015 0 0.00062561 6.93953 0.00062561 15.4999C0.00062561 24.0602 6.94015 30.9997 15.5005 30.9997Z" fill="url(#paint0_radial_1815_4130)"/>
<path d="M24.9944 11.1394C24.3182 11.439 23.6008 11.6354 22.8663 11.7221C23.6401 11.2593 24.2192 10.531 24.4956 9.67275C23.7684 10.1043 22.9727 10.4083 22.1429 10.5716C21.7962 10.2018 21.3772 9.90714 20.9119 9.70595C20.4466 9.50476 19.9449 9.4013 19.438 9.40198C17.3922 9.40198 15.7331 11.0612 15.7331 13.1069C15.7331 13.3973 15.7659 13.6799 15.8295 13.9513C12.7504 13.7968 10.0203 12.3219 8.19285 10.0797C7.86331 10.6452 7.69013 11.2881 7.69109 11.9426C7.69109 13.2276 8.34564 14.3621 9.33921 15.0263C8.75083 15.0082 8.17539 14.8491 7.66125 14.5624L7.66097 14.6094C7.66097 16.4045 8.93858 17.9018 10.6331 18.2419C10.3151 18.3287 9.98688 18.3724 9.65723 18.372C9.41796 18.372 9.18614 18.3491 8.96013 18.306C9.4315 19.7776 10.7995 20.8488 12.4211 20.8789C11.1086 21.909 9.48773 22.4676 7.81929 22.4649C7.52089 22.4649 7.22524 22.4475 6.93596 22.4129C8.62966 23.5019 10.6012 24.0798 12.6147 24.0776C19.4294 24.0776 23.1561 18.4323 23.1561 13.536C23.1561 13.3754 23.1525 13.2155 23.1454 13.0569C23.871 12.5329 24.4972 11.8836 24.9944 11.1394V11.1394Z" fill="white"/>
</g>
</g>
<defs>
<radialGradient id="paint0_radial_1815_4130" cx="0" cy="0" r="1" gradientUnits="userSpaceOnUse" gradientTransform="translate(-34.8741 -13.9043) rotate(32.1037) scale(84.4929)">
<stop offset="0.664004" stop-color="#E7181C"/>
<stop offset="0.967825" stop-color="#F07577"/>
</radialGradient>
<clipPath id="clip0_1815_4130">
<rect width="31" height="31" fill="white"/>
</clipPath>
<clipPath id="clip1_1815_4130">
<rect width="31" height="31" fill="white"/>
</clipPath>
</defs>
</svg>
