<svg width="1440" height="1362" viewBox="0 0 1440 1362" fill="none" xmlns="http://www.w3.org/2000/svg">
<path opacity="0.0526316" d="M1308.84 1235.28C1358.88 1200.86 1442.61 1090.87 1377.23 926.221C1295.52 720.407 1078.9 640.807 966.587 457.114C883.689 321.535 759.255 -42.7711 896.756 -252.253" stroke="url(#paint0_radial_1815_3745)" stroke-width="3"/>
<path opacity="0.105263" d="M1203.94 1269.22C1257.63 1239.78 1353.47 1138.4 1307.27 968.401C1249.51 755.899 1043.18 656.017 952.459 462.589C885.504 319.825 803.369 -54.3863 964.049 -249.569" stroke="url(#paint1_radial_1815_3745)" stroke-width="3"/>
<path opacity="0.157895" d="M1097.63 1294.87C1154.39 1270.72 1261.29 1179.07 1234.75 1005.58C1201.59 788.712 1007.8 669.643 939.674 468.598C889.394 320.211 850.459 -59.8062 1032.56 -238.552" stroke="url(#paint2_radial_1815_3745)" stroke-width="3"/>
<path opacity="0.210526" d="M990.844 1312.12C1050.06 1293.54 1166.84 1212.61 1160.27 1037.53C1152.06 818.683 972.932 681.731 928.15 475.272C895.097 322.89 899.788 -58.7694 1101.31 -219.119" stroke="url(#paint3_radial_1815_3745)" stroke-width="3"/>
<path opacity="0.263158" d="M884.57 1320.99C945.58 1308.17 1070.97 1238.85 1084.44 1064.1C1101.27 845.671 938.771 692.337 917.82 482.726C902.356 328.017 950.621 -51.1021 1169.35 -191.3" stroke="url(#paint4_radial_1815_3745)" stroke-width="3"/>
<path opacity="0.315789" d="M779.759 1321.56C841.899 1314.65 974.518 1257.7 1007.88 1085.2C1049.57 869.572 905.478 701.536 908.588 491.069C910.883 335.729 1002.19 -36.6974 1235.74 -155.207" stroke="url(#paint5_radial_1815_3745)" stroke-width="3"/>
<path opacity="0.368421" d="M677.334 1314.02C739.923 1313.09 878.322 1269.14 931.203 1100.77C997.305 890.315 873.196 709.418 900.332 500.401C920.36 346.131 1053.72 -15.5224 1299.53 -111.045" stroke="url(#paint6_radial_1815_3745)" stroke-width="3"/>
<path opacity="0.421053" d="M578.229 1298.64C640.582 1303.71 783.243 1273.23 855.068 1110.85C944.85 907.865 842.086 716.089 892.951 510.813C930.493 359.304 1104.43 12.3865 1359.81 -59.1024" stroke="url(#paint7_radial_1815_3745)" stroke-width="3"/>
<path opacity="0.473684" d="M483.313 1275.79C544.746 1286.79 690.106 1270.13 780.089 1115.5C892.568 922.219 812.276 721.665 886.313 522.378C940.958 375.29 1153.58 46.9087 1415.72 0.235875" stroke="url(#paint8_radial_1815_3745)" stroke-width="3"/>
<path opacity="0.526316" d="M393.408 1245.91C453.247 1262.72 599.715 1260.05 706.869 1114.88C840.812 933.415 783.871 726.28 880.269 535.167C951.417 394.11 1200.39 87.8643 1466.42 66.5195" stroke="url(#paint9_radial_1815_3745)" stroke-width="3"/>
<path opacity="0.578947" d="M309.301 1209.51C366.893 1231.95 512.863 1243.31 636.014 1109.18C789.954 941.515 756.987 730.068 874.69 549.221C961.563 415.742 1244.15 134.986 1511.17 139.203" stroke="url(#paint10_radial_1815_3745)" stroke-width="3"/>
<path opacity="0.631579" d="M231.694 1167.18C286.406 1195.01 430.279 1220.26 568.078 1098.65C740.328 946.627 731.697 733.186 869.414 564.587C971.059 440.149 1284.17 187.959 1549.25 217.692" stroke="url(#paint11_radial_1815_3745)" stroke-width="3"/>
<path opacity="0.684211" d="M161.248 1119.58C212.481 1152.49 352.681 1191.36 503.619 1083.59C692.292 948.882 708.092 735.785 864.315 581.281C979.62 467.246 1319.83 246.384 1580.06 301.307" stroke="url(#paint12_radial_1815_3745)" stroke-width="3"/>
<path opacity="0.736842" d="M98.5032 1067.42C145.696 1105.05 280.686 1157.12 443.109 1064.38C646.137 948.45 686.195 738.031 859.212 599.316C986.912 496.933 1350.49 309.821 1603.02 389.331" stroke="url(#paint13_radial_1815_3745)" stroke-width="3"/>
<path opacity="0.789474" d="M43.9544 1011.46C86.5897 1053.4 214.893 1118.1 387.02 1041.4C602.18 945.523 666.056 740.087 853.973 618.68C992.669 529.072 1375.63 377.758 1617.69 480.986" stroke="url(#paint14_radial_1815_3745)" stroke-width="3"/>
<path opacity="0.842105" d="M-2.02027 952.515C35.5907 998.3 155.8 1074.92 335.747 1015.1C560.681 940.327 647.676 742.126 848.433 639.357C996.606 563.505 1394.76 449.647 1623.7 575.461" stroke="url(#paint15_radial_1815_3745)" stroke-width="3"/>
<path opacity="0.894737" d="M-39.1214 891.413C-6.94693 940.544 103.851 1028.24 289.646 985.958C521.889 933.109 631.049 744.316 842.447 661.31C998.474 600.046 1407.45 524.893 1620.76 671.914" stroke="url(#paint16_radial_1815_3745)" stroke-width="3"/>
<path opacity="0.947368" d="M-67.1435 829.014C-40.7579 880.954 59.4151 978.764 249.022 954.486C486.032 924.139 616.162 746.82 835.884 684.488C998.055 638.482 1413.38 602.856 1608.73 769.475" stroke="url(#paint17_radial_1815_3745)" stroke-width="3"/>
<path d="M-86 766.195C-65.6925 820.374 22.7579 927.228 214.099 921.219C453.277 913.707 602.95 749.805 828.589 708.829C995.127 678.586 1412.24 682.878 1587.49 867.268" stroke="url(#paint18_radial_1815_3745)" stroke-width="3"/>
<defs>
<radialGradient id="paint0_radial_1815_3745" cx="0" cy="0" r="1" gradientUnits="userSpaceOnUse" gradientTransform="translate(1967.29 1761.67) rotate(-123.582) scale(2337.94 1205.61)">
<stop offset="0.664004" stop-color="#E7181C"/>
<stop offset="0.967825" stop-color="#F07577"/>
</radialGradient>
<radialGradient id="paint1_radial_1815_3745" cx="0" cy="0" r="1" gradientUnits="userSpaceOnUse" gradientTransform="translate(1798.64 1855.71) rotate(-117.299) scale(2319.02 1215.44)">
<stop offset="0.664004" stop-color="#E7181C"/>
<stop offset="0.967825" stop-color="#F07577"/>
</radialGradient>
<radialGradient id="paint2_radial_1815_3745" cx="0" cy="0" r="1" gradientUnits="userSpaceOnUse" gradientTransform="translate(1622.08 1935.02) rotate(-110.921) scale(2303 1223.9)">
<stop offset="0.664004" stop-color="#E7181C"/>
<stop offset="0.967825" stop-color="#F07577"/>
</radialGradient>
<radialGradient id="paint3_radial_1815_3745" cx="0" cy="0" r="1" gradientUnits="userSpaceOnUse" gradientTransform="translate(1439.29 1998.93) rotate(-104.463) scale(2290.64 1230.5)">
<stop offset="0.664004" stop-color="#E7181C"/>
<stop offset="0.967825" stop-color="#F07577"/>
</radialGradient>
<radialGradient id="paint4_radial_1815_3745" cx="0" cy="0" r="1" gradientUnits="userSpaceOnUse" gradientTransform="translate(1252.1 2046.92) rotate(-97.9467) scale(2282.53 1234.87)">
<stop offset="0.664004" stop-color="#E7181C"/>
<stop offset="0.967825" stop-color="#F07577"/>
</radialGradient>
<radialGradient id="paint5_radial_1815_3745" cx="0" cy="0" r="1" gradientUnits="userSpaceOnUse" gradientTransform="translate(1062.35 2078.67) rotate(-91.3976) scale(2279.09 1236.74)">
<stop offset="0.664004" stop-color="#E7181C"/>
<stop offset="0.967825" stop-color="#F07577"/>
</radialGradient>
<radialGradient id="paint6_radial_1815_3745" cx="0" cy="0" r="1" gradientUnits="userSpaceOnUse" gradientTransform="translate(871.882 2094.01) rotate(-84.8425) scale(2280.48 1235.99)">
<stop offset="0.664004" stop-color="#E7181C"/>
<stop offset="0.967825" stop-color="#F07577"/>
</radialGradient>
<radialGradient id="paint7_radial_1815_3745" cx="0" cy="0" r="1" gradientUnits="userSpaceOnUse" gradientTransform="translate(682.607 2092.97) rotate(-78.3092) scale(2286.63 1232.66)">
<stop offset="0.664004" stop-color="#E7181C"/>
<stop offset="0.967825" stop-color="#F07577"/>
</radialGradient>
<radialGradient id="paint8_radial_1815_3745" cx="0" cy="0" r="1" gradientUnits="userSpaceOnUse" gradientTransform="translate(496.374 2075.75) rotate(-71.8237) scale(2297.25 1226.96)">
<stop offset="0.664004" stop-color="#E7181C"/>
<stop offset="0.967825" stop-color="#F07577"/>
</radialGradient>
<radialGradient id="paint9_radial_1815_3745" cx="0" cy="0" r="1" gradientUnits="userSpaceOnUse" gradientTransform="translate(315.012 2042.73) rotate(-65.4091) scale(2311.79 1219.24)">
<stop offset="0.664004" stop-color="#E7181C"/>
<stop offset="0.967825" stop-color="#F07577"/>
</radialGradient>
<radialGradient id="paint10_radial_1815_3745" cx="0" cy="0" r="1" gradientUnits="userSpaceOnUse" gradientTransform="translate(140.307 1994.47) rotate(-59.084) scale(2329.58 1209.94)">
<stop offset="0.664004" stop-color="#E7181C"/>
<stop offset="0.967825" stop-color="#F07577"/>
</radialGradient>
<radialGradient id="paint11_radial_1815_3745" cx="0" cy="0" r="1" gradientUnits="userSpaceOnUse" gradientTransform="translate(-26.0457 1931.67) rotate(-52.8614) scale(2349.75 1199.55)">
<stop offset="0.664004" stop-color="#E7181C"/>
<stop offset="0.967825" stop-color="#F07577"/>
</radialGradient>
<radialGradient id="paint12_radial_1815_3745" cx="0" cy="0" r="1" gradientUnits="userSpaceOnUse" gradientTransform="translate(-182.417 1855.24) rotate(-46.7489) scale(2371.39 1188.6)">
<stop offset="0.664004" stop-color="#E7181C"/>
<stop offset="0.967825" stop-color="#F07577"/>
</radialGradient>
<radialGradient id="paint13_radial_1815_3745" cx="0" cy="0" r="1" gradientUnits="userSpaceOnUse" gradientTransform="translate(-327.319 1766.18) rotate(-40.7487) scale(2393.52 1177.61)">
<stop offset="0.664004" stop-color="#E7181C"/>
<stop offset="0.967825" stop-color="#F07577"/>
</radialGradient>
<radialGradient id="paint14_radial_1815_3745" cx="0" cy="0" r="1" gradientUnits="userSpaceOnUse" gradientTransform="translate(-459.36 1665.67) rotate(-34.8576) scale(2415.18 1167.06)">
<stop offset="0.664004" stop-color="#E7181C"/>
<stop offset="0.967825" stop-color="#F07577"/>
</radialGradient>
<radialGradient id="paint15_radial_1815_3745" cx="0" cy="0" r="1" gradientUnits="userSpaceOnUse" gradientTransform="translate(-577.314 1555) rotate(-29.0682) scale(2435.43 1157.35)">
<stop offset="0.664004" stop-color="#E7181C"/>
<stop offset="0.967825" stop-color="#F07577"/>
</radialGradient>
<radialGradient id="paint16_radial_1815_3745" cx="0" cy="0" r="1" gradientUnits="userSpaceOnUse" gradientTransform="translate(-680.09 1435.57) rotate(-23.3694) scale(2453.44 1148.85)">
<stop offset="0.664004" stop-color="#E7181C"/>
<stop offset="0.967825" stop-color="#F07577"/>
</radialGradient>
<radialGradient id="paint17_radial_1815_3745" cx="0" cy="0" r="1" gradientUnits="userSpaceOnUse" gradientTransform="translate(-766.766 1308.89) rotate(-17.7472) scale(2468.5 1141.85)">
<stop offset="0.664004" stop-color="#E7181C"/>
<stop offset="0.967825" stop-color="#F07577"/>
</radialGradient>
<radialGradient id="paint18_radial_1815_3745" cx="0" cy="0" r="1" gradientUnits="userSpaceOnUse" gradientTransform="translate(-836.608 1176.52) rotate(-12.1854) scale(2479.97 1136.56)">
<stop offset="0.664004" stop-color="#E7181C"/>
<stop offset="0.967825" stop-color="#F07577"/>
</radialGradient>
</defs>
</svg>
